<?xml version="1.0" standalone="no"?>
<!DOCTYPE svg PUBLIC "-//W3C//DTD SVG 20010904//EN"
 "http://www.w3.org/TR/2001/REC-SVG-20010904/DTD/svg10.dtd">
<svg version="1.0" xmlns="http://www.w3.org/2000/svg"
 width="960.000000pt" height="960.000000pt" viewBox="0 0 960.000000 960.000000"
 preserveAspectRatio="xMidYMid meet">
<metadata>
Created by potrace 1.11, written by Peter Selinger 2001-2013
</metadata>
<g transform="translate(0.000000,960.000000) scale(0.100000,-0.100000)"
fill="#000000" stroke="none">
<path d="M6776 7643 c-1 -1 -29 -5 -62 -8 -32 -2 -81 -9 -109 -15 -27 -5 -64
-12 -82 -15 -18 -3 -44 -10 -58 -15 -14 -5 -40 -12 -58 -15 -17 -4 -45 -12
-62 -20 -16 -7 -48 -19 -70 -26 -22 -8 -80 -34 -130 -59 -76 -39 -119 -65
-253 -155 -9 -5 -23 -17 -32 -25 -9 -8 -30 -26 -46 -40 -16 -14 -59 -50 -94
-80 -36 -30 -70 -59 -76 -65 -6 -5 -35 -30 -64 -55 -29 -25 -58 -50 -64 -55
-11 -11 -145 -126 -180 -155 -10 -8 -31 -26 -46 -40 -15 -14 -47 -41 -70 -59
-23 -19 -48 -40 -54 -46 -12 -11 -203 -176 -250 -216 -16 -13 -34 -28 -40 -34
-14 -13 -75 -65 -151 -130 -32 -27 -67 -58 -79 -68 -11 -10 -41 -36 -66 -57
-113 -96 -105 -86 -88 -112 9 -13 24 -32 34 -43 11 -11 46 -51 79 -90 33 -38
67 -76 75 -85 8 -9 27 -32 42 -52 16 -19 43 -51 60 -70 18 -20 42 -46 52 -59
11 -13 62 -73 114 -134 53 -60 116 -134 141 -164 25 -29 57 -66 71 -81 14 -16
43 -49 65 -75 22 -26 45 -53 50 -59 6 -6 35 -40 65 -76 30 -36 60 -70 65 -76
6 -6 33 -37 60 -70 28 -32 61 -71 75 -86 14 -16 30 -34 35 -41 50 -60 140
-163 149 -169 6 -4 8 -8 5 -8 -4 0 12 -20 35 -45 22 -24 46 -50 51 -57 6 -8
28 -34 50 -59 22 -26 58 -67 80 -93 22 -26 49 -57 60 -69 11 -13 51 -60 89
-105 38 -45 74 -82 79 -82 6 0 8 -3 4 -6 -3 -3 2 -13 11 -23 10 -9 40 -43 67
-76 28 -32 68 -79 90 -105 22 -25 63 -72 90 -104 28 -33 68 -79 90 -104 22
-25 46 -53 53 -64 8 -10 23 -29 35 -41 12 -12 40 -44 62 -71 22 -26 49 -58 60
-71 44 -48 84 -94 165 -190 120 -141 142 -165 153 -165 5 0 21 11 35 24 25 22
171 148 216 186 10 8 30 26 46 40 15 14 43 37 62 52 19 15 47 40 64 55 16 15
53 48 83 73 29 25 63 53 75 63 11 11 41 35 65 55 24 21 50 42 56 49 13 13 167
146 199 172 43 36 224 192 262 226 12 11 55 47 95 80 89 75 224 206 269 264
19 24 40 48 45 55 78 85 238 403 261 515 3 14 7 28 10 33 3 4 7 16 9 25 2 10
10 49 19 87 32 135 54 430 34 442 -4 3 -4 13 2 23 5 10 8 20 6 22 -2 2 -6 33
-10 69 -12 123 -16 148 -42 270 -36 169 -127 404 -221 570 -41 71 -88 145 -95
148 -5 2 -8 9 -8 16 0 6 -9 18 -20 26 -11 8 -20 20 -20 27 0 7 -10 22 -22 35
-13 13 -41 46 -63 73 -39 49 -233 246 -271 275 -11 8 -40 32 -65 52 -115 93
-398 257 -499 289 -14 4 -56 19 -94 33 -39 15 -79 28 -90 31 -12 3 -46 12 -76
20 -58 16 -84 22 -140 31 -19 3 -48 8 -65 11 -67 12 -380 25 -389 16z"/>
<path d="M5607 7454 c-3 -3 -125 -13 -232 -19 -39 -2 -97 -6 -130 -9 -33 -3
-96 -8 -140 -11 -45 -3 -110 -8 -145 -10 -36 -3 -96 -7 -135 -10 -142 -9 -232
-15 -290 -21 -33 -3 -94 -7 -135 -10 -41 -2 -100 -6 -130 -8 -30 -3 -95 -8
-145 -11 -49 -3 -112 -8 -140 -10 -27 -3 -90 -7 -140 -9 -49 -3 -108 -8 -130
-10 -22 -3 -89 -8 -150 -12 -60 -3 -123 -7 -139 -8 -17 -2 -31 -7 -33 -12 -2
-5 22 -36 52 -68 30 -33 55 -61 55 -62 0 -2 12 -16 28 -32 27 -30 38 -42 147
-166 33 -38 71 -81 85 -96 14 -15 52 -58 85 -95 33 -37 69 -77 80 -89 11 -12
47 -53 80 -91 33 -38 71 -80 84 -94 13 -14 44 -50 70 -79 25 -29 71 -81 102
-114 l56 -61 38 34 c21 19 48 43 61 54 12 11 53 47 90 80 38 33 84 74 103 92
18 18 50 46 71 63 20 16 57 49 82 73 25 23 74 67 109 97 35 30 73 64 85 75 13
11 46 40 74 65 29 25 71 63 95 85 24 22 71 65 106 95 35 30 129 113 209 184
80 71 163 145 186 165 22 20 40 40 40 46 -1 8 -52 16 -59 9z"/>
<path d="M3178 7152 c-18 -16 -46 -40 -62 -53 -16 -13 -34 -28 -40 -34 -15
-13 -125 -106 -150 -125 -10 -8 -23 -20 -30 -25 -6 -6 -40 -35 -76 -64 -36
-29 -69 -58 -75 -64 -5 -7 -26 -24 -45 -39 -19 -15 -47 -37 -62 -50 -14 -13
-45 -39 -68 -57 -24 -19 -48 -40 -54 -45 -6 -6 -51 -45 -101 -86 -104 -86
-133 -111 -149 -125 -10 -9 -95 -80 -155 -130 -13 -11 -35 -30 -49 -43 -14
-12 -39 -33 -55 -45 -16 -12 -39 -31 -51 -42 -12 -11 -48 -42 -81 -70 -90 -74
-219 -208 -266 -275 -13 -19 -31 -42 -40 -52 -9 -10 -22 -31 -30 -46 -8 -15
-16 -29 -19 -32 -13 -13 -70 -124 -118 -230 -32 -71 -93 -275 -106 -355 -3
-16 -8 -54 -11 -84 -4 -30 -9 -63 -11 -75 -5 -26 -5 -310 0 -351 3 -16 8 -54
11 -84 8 -65 13 -94 26 -146 5 -22 11 -49 13 -60 8 -47 29 -121 37 -129 5 -6
9 -18 9 -29 0 -19 24 -83 68 -181 15 -32 27 -62 28 -65 1 -13 29 -67 41 -79 7
-7 13 -17 13 -22 0 -14 90 -164 103 -172 7 -4 8 -8 2 -8 -6 0 -6 -3 1 -8 5 -4
29 -34 52 -66 69 -97 101 -134 227 -261 66 -66 167 -155 225 -198 58 -43 111
-82 118 -88 7 -6 28 -17 46 -24 19 -8 36 -18 38 -23 7 -19 353 -176 411 -186
6 -1 39 -10 72 -20 58 -17 67 -20 118 -31 31 -7 122 -22 182 -31 105 -15 425
-8 495 11 8 2 29 7 45 10 121 21 258 64 375 118 36 17 67 31 70 32 27 8 225
139 282 186 23 20 63 53 88 73 25 20 56 47 70 60 14 12 54 46 90 76 36 29 67
56 70 59 3 3 25 22 50 42 25 20 55 45 67 55 12 11 30 26 40 34 39 32 138 115
143 120 5 5 151 128 209 175 13 11 31 27 40 35 9 8 39 33 66 55 74 60 84 68
114 95 15 14 47 41 71 60 63 49 124 104 128 113 2 4 7 7 12 7 4 0 31 22 60 48
l53 49 -47 49 c-25 27 -46 52 -46 55 0 4 -17 25 -37 48 -21 22 -43 46 -48 53
-15 19 -106 128 -132 158 -12 14 -30 35 -40 47 -45 54 -89 107 -103 123 -8 10
-33 39 -55 66 -22 26 -57 69 -79 94 -21 25 -50 59 -65 76 -14 18 -43 52 -63
75 -20 24 -64 78 -98 119 -35 41 -74 89 -89 105 -27 31 -114 135 -141 168 -24
30 -50 60 -78 92 -15 17 -43 50 -63 75 -20 25 -46 56 -58 70 -11 14 -24 30
-28 35 -5 6 -24 28 -43 51 -19 22 -55 64 -80 94 -127 153 -164 197 -182 213
-11 9 -16 17 -12 17 5 0 4 4 -1 8 -6 4 -58 63 -115 132 -58 69 -107 127 -110
130 -6 6 -207 245 -230 274 -8 10 -19 23 -25 30 -5 6 -46 54 -89 106 -44 52
-84 100 -90 105 -6 6 -23 26 -38 45 -15 19 -38 49 -52 65 -73 84 -99 116 -150
178 l-55 67 -33 -28z"/>
<path d="M5824 3883 c-56 -49 -107 -95 -116 -103 -8 -8 -36 -33 -62 -55 -27
-22 -58 -49 -70 -60 -12 -11 -55 -49 -96 -85 -41 -36 -84 -74 -96 -85 -12 -11
-41 -36 -64 -55 -23 -19 -54 -46 -69 -60 -15 -14 -54 -48 -86 -77 -33 -28 -72
-62 -86 -75 -14 -12 -52 -45 -83 -73 -32 -27 -71 -61 -86 -75 -15 -14 -58 -52
-96 -85 -37 -33 -76 -68 -86 -77 -10 -10 -20 -18 -23 -18 -3 0 -20 -15 -38
-32 -18 -18 -46 -44 -63 -58 -56 -47 -53 -52 23 -46 37 4 104 8 148 11 44 3
109 7 145 10 118 9 224 16 310 21 47 2 110 6 140 8 30 2 102 7 160 11 58 3
128 8 155 11 28 2 93 6 145 9 52 3 115 8 140 10 25 2 95 7 155 11 61 3 128 8
150 10 22 2 83 6 135 9 106 6 158 10 310 20 58 4 111 8 118 8 21 1 14 13 -36
69 -27 29 -57 63 -68 76 -10 13 -32 39 -49 57 -16 18 -55 61 -85 96 -58 67
-128 146 -145 165 -11 12 -103 117 -132 150 -29 34 -136 155 -158 179 -11 13
-42 49 -70 81 -27 32 -70 80 -95 107 -25 27 -49 55 -53 63 -4 8 -11 14 -16 14
-4 0 -52 -39 -107 -87z"/>
</g>
</svg>
